<?xml version="1.0" standalone="no"?>
<!DOCTYPE svg PUBLIC "-//W3C//DTD SVG 20010904//EN"
 "http://www.w3.org/TR/2001/REC-SVG-20010904/DTD/svg10.dtd">
<svg version="1.0" xmlns="http://www.w3.org/2000/svg"
 width="1556.000000pt" height="884.000000pt" viewBox="0 0 1556.000000 884.000000"
 preserveAspectRatio="xMidYMid meet">

<g transform="translate(0.000000,884.000000) scale(0.100000,-0.100000)"
fill="#000000" stroke="none">
<path d="M8185 6763 c-204 -25 -530 -143 -625 -226 -19 -17 -66 -45 -105 -63
-38 -18 -83 -47 -100 -64 -16 -18 -57 -55 -90 -82 -118 -98 -331 -354 -412
-497 -70 -122 -96 -215 -97 -346 -1 -101 1 -115 26 -165 80 -161 231 -299 454
-413 240 -123 365 -250 381 -386 5 -43 2 -51 -26 -83 -62 -71 -209 -108 -354
-89 -138 18 -254 88 -325 195 -41 61 -61 63 -159 16 -79 -38 -83 -41 -83 -73
0 -81 220 -359 292 -369 13 -2 27 -13 32 -25 13 -27 131 -63 210 -63 67 0 268
26 356 45 55 13 157 53 249 98 14 7 46 44 73 82 55 81 78 163 78 278 0 224
-102 335 -585 632 -231 143 -278 182 -295 247 -25 91 2 176 116 368 90 151
140 212 219 265 31 20 63 48 72 62 17 26 292 212 373 253 25 13 49 29 55 36
12 16 162 59 273 78 86 14 138 9 154 -16 33 -54 -38 -213 -155 -348 -54 -62
-77 -111 -77 -164 0 -36 5 -48 26 -65 120 -95 288 -8 436 225 142 223 139 401
-10 535 -107 96 -240 139 -377 122z"/>
<path d="M3720 6640 c-157 -8 -249 -21 -307 -45 -30 -13 -210 -55 -232 -55 -6
0 -19 10 -30 22 -26 27 -101 28 -163 0 -84 -37 -224 -136 -301 -213 l-78 -78
6 -44 c7 -46 -2 -75 -36 -112 -21 -24 -119 -217 -119 -236 0 -7 -8 -21 -17
-31 -40 -44 -229 -365 -303 -513 -98 -195 -148 -372 -157 -546 -9 -170 36
-323 123 -419 77 -84 299 -217 400 -238 117 -25 464 26 670 99 173 61 285 129
405 248 128 127 173 238 114 277 -20 13 -42 16 -103 12 -86 -5 -138 -26 -212
-87 -119 -97 -218 -147 -360 -181 -267 -64 -260 -63 -357 -57 -80 5 -106 11
-167 40 -82 39 -145 97 -179 167 -18 37 -22 61 -21 130 2 174 102 460 160 460
8 0 14 -7 14 -15 0 -8 11 -22 25 -31 45 -29 151 -12 580 96 220 55 427 109
461 120 78 26 109 58 107 110 -3 78 -77 180 -131 180 -28 0 -221 -44 -437 -99
-257 -66 -348 -83 -399 -76 -64 10 -71 17 -53 51 8 16 53 81 100 145 47 64
106 156 130 205 51 102 156 239 205 267 37 22 377 93 627 132 199 30 257 45
307 80 47 32 56 64 33 116 -22 47 -107 130 -132 127 -10 -1 -88 -5 -173 -8z"/>
<path d="M13872 6603 c-49 -17 -57 -30 -92 -158 -28 -105 -145 -427 -232 -640
-38 -93 -81 -204 -95 -245 -14 -41 -33 -96 -44 -121 -10 -25 -21 -66 -25 -90
-3 -24 -15 -57 -26 -72 -26 -38 -132 -332 -152 -427 -9 -41 -27 -106 -38 -145
-30 -95 -32 -267 -4 -340 63 -167 202 -197 245 -54 7 24 17 86 22 140 10 104
72 344 158 611 28 87 51 166 51 177 0 10 6 24 14 30 7 6 16 28 20 49 3 20 38
109 77 197 39 88 85 201 103 250 19 50 66 160 106 245 112 240 138 305 150
369 14 78 2 108 -76 183 -65 64 -84 69 -162 41z"/>
<path d="M11402 6214 c-24 -10 -40 -31 -73 -96 -22 -46 -56 -108 -75 -139 -48
-80 -43 -132 18 -196 99 -103 264 -45 348 123 28 58 37 129 20 178 -29 90
-162 162 -238 130z"/>
<path d="M4564 5661 c-98 -24 -148 -56 -244 -158 -113 -119 -163 -189 -220
-308 -98 -202 -144 -388 -144 -570 1 -146 19 -199 95 -270 104 -97 239 -134
368 -101 83 21 247 101 261 126 6 11 20 20 32 20 49 0 264 205 300 287 10 24
23 43 28 43 6 0 10 8 10 18 0 47 -85 112 -147 112 -70 0 -100 -16 -186 -102
-143 -142 -294 -216 -396 -193 -41 9 -55 37 -53 110 1 108 106 432 171 533 75
116 243 214 265 156 10 -27 6 -107 -9 -169 -8 -33 -14 -75 -15 -93 0 -28 5
-35 34 -47 19 -8 52 -17 74 -21 34 -5 42 -3 51 15 7 12 22 21 35 21 40 0 91
75 125 185 17 54 19 74 11 116 -13 68 -45 138 -78 171 -15 14 -37 40 -49 56
-27 36 -145 82 -206 81 -23 0 -74 -8 -113 -18z"/>
<path d="M10223 5665 c-107 -24 -149 -49 -240 -142 -46 -48 -107 -117 -134
-153 -179 -237 -296 -680 -234 -887 50 -168 259 -276 445 -229 84 21 237 94
260 123 10 13 27 23 37 23 47 0 243 184 295 277 17 29 34 56 39 59 15 9 10 22
-22 59 -48 54 -82 68 -151 62 -64 -6 -101 -30 -150 -98 -32 -45 -214 -167
-276 -185 -61 -19 -137 -18 -156 1 -41 41 -31 138 34 355 53 174 100 270 164
338 88 94 191 138 216 93 15 -28 13 -59 -11 -174 l-21 -101 22 -18 c22 -18 81
-38 111 -38 9 0 24 9 34 20 10 11 26 20 36 20 59 0 148 190 136 292 -7 59 -54
165 -78 179 -10 5 -24 21 -31 37 -9 18 -36 39 -82 61 -80 41 -148 48 -243 26z"/>
<path d="M12316 5665 c-21 -7 -64 -31 -94 -52 -80 -54 -286 -260 -311 -310
-12 -24 -26 -43 -32 -43 -5 0 -13 -8 -16 -17 -4 -10 -32 -54 -64 -98 -85 -120
-234 -426 -264 -543 l-15 -55 36 -63 c23 -41 52 -75 79 -95 24 -17 46 -37 49
-44 2 -7 28 -21 57 -30 165 -55 371 47 646 319 l121 121 17 -50 c39 -115 122
-234 196 -281 80 -50 214 -69 284 -40 42 18 61 47 75 112 16 72 3 98 -57 119
-101 35 -115 47 -160 136 -72 143 -73 261 -5 461 l40 116 -127 110 c-220 192
-245 211 -290 227 -55 18 -113 19 -165 0z m139 -313 c17 -10 42 -41 57 -68
l27 -50 -53 -81 c-74 -114 -131 -176 -286 -309 -178 -152 -284 -223 -306 -201
-9 9 54 154 107 243 149 254 286 425 370 464 54 24 48 24 84 2z"/>
<path d="M5937 5615 c-258 -65 -560 -375 -662 -679 -14 -41 -25 -92 -25 -114
0 -23 -5 -42 -12 -45 -9 -3 -13 -34 -12 -108 0 -93 3 -110 28 -161 35 -69 94
-142 149 -183 40 -29 45 -30 147 -29 140 0 215 24 340 106 130 86 242 199 329
332 119 183 172 339 174 511 2 187 -38 263 -177 340 -60 34 -79 39 -145 41
-44 2 -101 -3 -134 -11z m117 -337 c11 -15 16 -46 16 -95 0 -64 -6 -89 -51
-203 -56 -145 -105 -219 -191 -289 -104 -84 -178 -105 -221 -63 -19 20 -22 33
-22 105 1 69 6 93 31 153 45 103 97 178 199 280 125 127 203 164 239 112z"/>
<path d="M8983 5611 c-190 -52 -382 -211 -540 -449 -79 -118 -152 -306 -136
-347 3 -9 -1 -22 -8 -31 -8 -10 -14 -51 -15 -113 -3 -90 -1 -103 25 -157 38
-79 112 -168 167 -200 44 -26 50 -27 147 -21 125 8 189 26 277 79 175 105 298
230 408 415 124 207 171 436 127 608 -23 88 -52 123 -145 179 -76 46 -87 50
-158 53 -54 2 -99 -3 -149 -16z m128 -328 c9 -11 14 -43 14 -97 0 -69 -5 -95
-37 -178 -60 -156 -78 -188 -149 -263 -81 -85 -161 -135 -217 -138 -52 -2 -68
13 -82 76 -10 43 -9 63 5 117 36 139 104 247 242 382 111 108 189 144 224 101z"/>
<path d="M11152 5413 c-12 -12 -43 -90 -82 -213 -34 -107 -82 -246 -107 -310
-75 -194 -110 -404 -83 -502 14 -49 58 -93 107 -108 36 -11 46 -10 79 6 24 12
47 34 61 59 31 55 69 173 89 275 9 47 31 123 49 170 18 47 43 120 54 163 12
43 32 104 45 135 58 138 55 170 -27 254 -82 85 -142 108 -185 71z"/>
</g>
</svg>
