<?xml version="1.0" standalone="no"?>
<!DOCTYPE svg PUBLIC "-//W3C//DTD SVG 20010904//EN"
 "http://www.w3.org/TR/2001/REC-SVG-20010904/DTD/svg10.dtd">
<svg version="1.0" xmlns="http://www.w3.org/2000/svg"
 width="400.000000pt" height="177.000000pt" viewBox="0 0 400.000000 177.000000"
 preserveAspectRatio="xMidYMid meet">

<g transform="translate(0.000000,177.000000) scale(0.100000,-0.100000)"
fill="#000000" stroke="none">
<path d="M2900 920 l0 -350 70 0 70 0 0 350 0 350 -70 0 -70 0 0 -350z"/>
<path d="M992 1237 c-78 -29 -141 -111 -142 -184 0 -80 49 -137 172 -199 90
-45 114 -70 104 -108 -14 -55 -104 -60 -195 -11 -36 19 -65 34 -66 32 -47 -76
-65 -109 -65 -117 0 -16 74 -58 135 -76 78 -22 194 -16 252 14 49 26 90 75 99
121 l7 32 19 -43 c24 -54 52 -84 103 -111 58 -32 202 -31 261 0 47 25 84 65
104 112 l13 32 17 -38 c19 -44 78 -99 126 -119 45 -19 135 -18 184 2 22 9 40
18 40 20 0 2 -10 23 -22 48 l-21 44 -52 -5 c-64 -7 -92 7 -111 54 -20 46 -10
86 29 119 28 23 37 26 82 20 l51 -6 22 44 c25 53 20 60 -58 77 -109 23 -216
-25 -263 -120 l-25 -51 -12 34 c-24 74 -140 146 -235 146 -103 0 -214 -74
-239 -158 -12 -42 -13 -44 -19 -21 -10 41 -77 99 -157 137 -103 49 -130 69
-130 97 0 54 88 72 169 35 24 -11 45 -19 46 -18 2 2 15 27 29 56 33 66 28 74
-61 102 -72 22 -141 25 -191 7z m593 -371 c40 -17 55 -42 55 -91 0 -51 -44
-95 -95 -95 -107 0 -132 159 -30 189 17 5 31 10 33 10 1 1 18 -5 37 -13z"/>
<path d="M2195 1215 c-37 -36 -34 -86 7 -120 35 -30 79 -29 110 3 32 31 33 75
3 110 -34 41 -84 44 -120 7z"/>
<path d="M2500 989 c-88 -27 -144 -109 -144 -214 1 -92 42 -159 123 -200 47
-24 140 -17 181 13 36 27 40 27 40 2 0 -18 7 -20 70 -20 l70 0 0 210 0 210
-70 0 c-63 0 -70 -2 -70 -20 0 -19 -1 -19 -41 1 -48 25 -110 32 -159 18z m174
-151 c24 -27 28 -36 23 -72 -11 -81 -94 -113 -156 -60 -25 21 -31 33 -31 66 0
51 14 77 53 93 42 18 76 10 111 -27z"/>
<path d="M2180 780 l0 -210 70 0 70 0 0 210 0 210 -70 0 -70 0 0 -210z"/>
</g>
</svg>
